<?xml version="1.0" encoding="UTF-8" standalone="no"?>
<!-- Created with Inkscape (http://www.inkscape.org/) -->

<svg
   width="460"
   height="460"
   version="1.1"
   viewBox="0 0 460 460"
   xml:space="preserve"
   id="svg48"
   sodipodi:docname="icon.svg"
   inkscape:version="1.2.2 (b0a8486541, 2022-12-01)"
   xmlns:inkscape="http://www.inkscape.org/namespaces/inkscape"
   xmlns:sodipodi="http://sodipodi.sourceforge.net/DTD/sodipodi-0.dtd"
   xmlns="http://www.w3.org/2000/svg"
   xmlns:svg="http://www.w3.org/2000/svg"
   xmlns:rdf="http://www.w3.org/1999/02/22-rdf-syntax-ns#"
   xmlns:cc="http://creativecommons.org/ns#"
   xmlns:dc="http://purl.org/dc/elements/1.1/"><defs
     id="defs52" /><sodipodi:namedview
     id="namedview50"
     pagecolor="#ffffff"
     bordercolor="#111111"
     borderopacity="1"
     inkscape:showpageshadow="0"
     inkscape:pageopacity="0"
     inkscape:pagecheckerboard="1"
     inkscape:deskcolor="#d1d1d1"
     showgrid="false"
     inkscape:zoom="0.61521739"
     inkscape:cx="-145.47703"
     inkscape:cy="271.44876"
     inkscape:window-width="1320"
     inkscape:window-height="744"
     inkscape:window-x="0"
     inkscape:window-y="0"
     inkscape:window-maximized="1"
     inkscape:current-layer="svg48" /><title
     id="title2">Web-Art-Online Logo</title><g
     fill-opacity="0"
     stroke="#000000"
     stroke-width="4"
     id="g44"
     transform="matrix(1.3658304,0,0,1.3658304,-98.467762,-92.21305)"><g
       id="g26"><path
         d="M 314.92,111.2 H 161.77 c -30.316,2.6307 -42.753,27.237 -45.687,44.25 l 198.84,0.28734 z"
         stroke-linejoin="round"
         id="path4" /><path
         d="m 314.92,111.2 c 32.715,1.2618 47.627,17.689 49.808,44.962 l -49.808,-0.42397 v 205.05"
         id="path6" /><path
         d="m 116.09,155.45 v 160.67 c 2.4235,25.524 23.4,44.278 44.539,44.5 h 156.3"
         id="path8" /><path
         d="m 247.1,155.64 67.822,49.153"
         id="path10" /><path
         d="M 235.52,191.13 184.542,155.448"
         id="path12" /><path
         d="m 241.97,196.04 56.364,40.922"
         id="path14" /><path
         d="m 307.68,243.71 7.247,5.3449"
         id="path16" /><path
         d="M 157.49,135.09 H 142.266"
         id="path18" /><path
         d="m 171.49,135.09 h 30.819"
         id="path20" /><path
         d="m 214.47,135.09 h 81.226"
         id="path22" /><path
         d="M 165.49,190.31 124.864,155.447"
         id="path24" /></g><g
       stroke-linecap="round"
       id="g42"><path
         d="m 195.92,212.44 c -3.2548,-11.512 -14.768,-18.583 -33.011,-22.742 -12.885,-1.7484 -23.036,-2.274 -34.965,4.6607 -3.1744,1.3689 -7.2865,4.8812 -11.857,9.4419"
         id="path28" /><path
         d="m 238.63,259.41 c 28.833,-13.352 54.004,-1.9726 62.713,22.58"
         id="path30" /><path
         d="m 195.04,215.36 c 26.571,-4.6894 45.754,13.558 41.852,39.836"
         id="path32" /><path
         d="m 302.83,283.26 c 4.3451,2.2948 8.8815,6.8643 12.095,12.412"
         id="path34" /><path
         d="m 169.09,262.41 c 0.37066,-2.185 -0.0397,-4.9559 -0.45009,-7.7266 -3.3721,-13.622 -12.6,-22.662 -32.557,-27.681 -6.3786,-1.6202 -12.756,-0.48028 -19.993,2.4005"
         id="path36" /><path
         d="M 200.19,289.94 C 189.164,268.522 171.96,259.766 151.601,262.104"
         id="path38" /><path
         d="m 204.32,291.86 c 20.741,1.9454 37.377,27.471 37.472,46.65 0.48834,8.3564 -0.91776,18.431 -6.2798,21.698"
         id="path40" /></g></g><metadata
     id="metadata46"><rdf:RDF><cc:License
         rdf:about="http://creativecommons.org/licenses/by-sa/4.0/"><cc:permits
           rdf:resource="http://creativecommons.org/ns#Reproduction" /><cc:permits
           rdf:resource="http://creativecommons.org/ns#Distribution" /><cc:requires
           rdf:resource="http://creativecommons.org/ns#Notice" /><cc:requires
           rdf:resource="http://creativecommons.org/ns#Attribution" /><cc:permits
           rdf:resource="http://creativecommons.org/ns#DerivativeWorks" /><cc:requires
           rdf:resource="http://creativecommons.org/ns#ShareAlike" /></cc:License><cc:Work
         rdf:about=""><cc:license
           rdf:resource="http://creativecommons.org/licenses/by-sa/4.0/" /><dc:contributor><cc:Agent><dc:title>SessionHu</dc:title></cc:Agent></dc:contributor><dc:title>Web-Art-Online Logo</dc:title><dc:rights><cc:Agent><dc:title>Web-Art-Online</dc:title></cc:Agent></dc:rights></cc:Work></rdf:RDF></metadata></svg>
