<?xml version="1.0" encoding="UTF-8"?>
<!-- Created with Inkscape (http://www.inkscape.org/) -->
<svg width="460" height="460" version="1.1" viewBox="0 0 460 460" xml:space="preserve" xmlns="http://www.w3.org/2000/svg" xmlns:cc="http://creativecommons.org/ns#" xmlns:dc="http://purl.org/dc/elements/1.1/" xmlns:rdf="http://www.w3.org/1999/02/22-rdf-syntax-ns#"><title>Web-Art-Online Logo</title><g transform="matrix(1.3658 0 0 1.3658 -98.468 -92.213)" fill-opacity="0" stroke="#000" stroke-width="7.3216"><path d="m314.92 111.2h-153.15c-30.316 2.6307-42.753 27.237-45.687 44.25l198.84 0.28734z" stroke-linejoin="round" stroke-width="7.3216"/><path d="m314.92 111.2c32.715 1.2618 47.627 17.689 49.808 44.962l-49.808-0.42397v205.05" stroke-width="7.3216"/><path d="m116.1 155.45 0.22594 160.67c2.4235 25.524 23.4 44.278 44.539 44.5h157.72" stroke-width="7.3216"/><g stroke-width="7.3216"><path d="m247.1 155.64 67.822 49.153"/><path d="m235.52 191.13-50.978-35.682"/><path d="m241.97 196.04 56.364 40.922"/><path d="m307.68 243.71 7.247 5.3449"/><path d="m157.49 135.09h-15.224"/><path d="m171.49 135.09h30.819"/><path d="m214.47 135.09h81.226"/><path d="m165.49 190.31-40.626-34.863"/></g><g stroke-linecap="round"><path d="m195.92 212.44c-3.2548-11.512-14.768-18.583-33.011-22.742-12.885-1.7484-23.036-2.274-34.965 4.6607-3.1744 1.3689-7.2865 4.8812-11.857 9.4419"/><path d="m238.63 259.41c28.833-13.352 54.004-1.9726 62.713 22.58"/><path d="m195.04 215.36c26.571-4.6894 45.754 13.558 41.852 39.836"/><path d="m302.83 283.26c4.3451 2.2948 8.8815 6.8643 12.095 12.412"/><path d="m169.09 262.41c0.37066-2.185-0.0397-4.9559-0.45009-7.7266-3.3721-13.622-12.6-22.662-32.557-27.681-6.3786-1.6202-12.756-0.48028-19.993 2.4005"/><path d="m200.19 289.94c-11.026-21.418-28.23-30.174-48.589-27.836"/><path d="m204.32 291.86c20.741 1.9454 37.377 27.471 37.472 46.65 0.48834 8.3564-0.91776 18.431-6.2798 21.698"/></g></g><metadata><rdf:RDF><cc:License rdf:about="http://creativecommons.org/licenses/by-sa/4.0/"><cc:permits rdf:resource="http://creativecommons.org/ns#Reproduction"/><cc:permits rdf:resource="http://creativecommons.org/ns#Distribution"/><cc:requires rdf:resource="http://creativecommons.org/ns#Notice"/><cc:requires rdf:resource="http://creativecommons.org/ns#Attribution"/><cc:permits rdf:resource="http://creativecommons.org/ns#DerivativeWorks"/><cc:requires rdf:resource="http://creativecommons.org/ns#ShareAlike"/></cc:License><cc:Work rdf:about=""><cc:license rdf:resource="http://creativecommons.org/licenses/by-sa/4.0/"/><dc:contributor><cc:Agent><dc:title>SessionHu</dc:title></cc:Agent></dc:contributor><dc:title>Web-Art-Online Logo</dc:title><dc:rights><cc:Agent><dc:title>Web-Art-Online</dc:title></cc:Agent></dc:rights></cc:Work></rdf:RDF></metadata></svg>
